<svg xmlns="http://www.w3.org/2000/svg" viewBox="0 0 906.52 503.84"><defs><style>.cls-2,.cls-25,.cls-3,.cls-33,.cls-34,.cls-36,.cls-5{fill:none}.cls-2,.cls-5{stroke:#1e1e30}.cls-2,.cls-25,.cls-33,.cls-34,.cls-36,.cls-5{stroke-linecap:round;stroke-linejoin:round}.cls-2{stroke-width:3px}.cls-3{stroke:#dfe0cd;stroke-miterlimit:10;stroke-width:2px}.cls-4,.cls-8{fill:#fff}.cls-5{stroke-width:4px}.cls-8{opacity:.56}.cls-9{opacity:.15}.cls-10{fill:#1b3c47}.cls-11{fill:#3f3e3e}.cls-13{fill:#cacad8}.cls-14{fill:#a1a1c4}.cls-18{fill:#3c5159}.cls-20{fill:#70bee0}.cls-34{stroke:#70bee0}.cls-25{stroke-width:9px;stroke:#7997a3}.cls-27{fill:#f29681}.cls-28{fill:#fdfdff}.cls-29{fill:#dd7b6b}.cls-31{fill:#dd9742}.cls-33{stroke:#3c5159;stroke-width:5px}.cls-34{stroke-width:7px}.cls-36{stroke:#fff;stroke-width:8px}</style></defs><g id="Layer_2" data-name="Layer 2"><g id="Layer_1-2" data-name="Layer 1"><path d="M132.62 473.84H17.07A15.07 15.07 0 012 458.77a15.07 15.07 0 0115.07-15.07h115.55" fill="#ecede2"/><path class="cls-2" d="M3.49 456.23h19.15"/><path class="cls-3" d="M2 453.91h130.62M2 458.98h130.62M2 464.04h130.62M6 469.1h126.62M6 448.85h126.62"/><path class="cls-2" d="M4 463.65h79.5"/><path class="cls-4" d="M40.65 443.53h48.06a5.32 5.32 0 01-5.32 5.32H46a5.32 5.32 0 01-5.32-5.32z"/><path class="cls-5" d="M132.62 473.84H17.07A15.07 15.07 0 012 458.77a15.07 15.07 0 0115.07-15.07h115.55M817.34 364.31l7.38 67.51"/><path class="cls-2" d="M817.65 372.4l-6.26.77 2.34 20.16"/><path class="cls-5" d="M842 362.31l-8.24 67.51M864.27 362.31l-8.24 67.51"/><path fill="#28f3bb" d="M816.53 399.89h61.15v76.06h-61.15z"/><path fill="#1bdda1" d="M818.48 401.31h10.34v73.15h-10.34z"/><path class="cls-4" d="M856.65 401.31h3.51v73.65h-3.51z"/><path class="cls-8" d="M863.2 401.31h1.73v73.65h-1.73zM868.68 401.31h1.73v73.65h-1.73z"/><path class="cls-5" d="M816.53 399.89h61.15v76.06h-61.15z"/><g class="cls-9"><path class="cls-10" d="M797.6 126.5h-.29a1.5 1.5 0 010-3h.29a1.5 1.5 0 010 3z"/><path class="cls-10" d="M808.53 126.5h-6a1.5 1.5 0 010-3h3v-15.06h-46.76v15.06H786a1.5 1.5 0 010 3h-30.23v-21.06h52.76z"/><path class="cls-10" d="M793.26 126.5h-2.67a1.5 1.5 0 010-3h2.67a1.5 1.5 0 010 3zM768.27 162.61h-12.5v-21.06h37.14a1.5 1.5 0 010 3h-34.14v15.06h9.5a1.5 1.5 0 010 3z"/><path class="cls-10" d="M778.07 162.61h-5.41a1.5 1.5 0 010-3h5.41a1.5 1.5 0 010 3zM782.2 162.61h-.11a1.5 1.5 0 010-3h.11a1.5 1.5 0 010 3zM808.53 162.61h-22.08a1.5 1.5 0 010-3h19.08v-15.06h-6.62a1.5 1.5 0 010-3h9.67zM783.25 144.55h-52.76V123.5h52.76zm-49.76-3h46.76V126.5h-46.76z"/></g><path class="cls-11" d="M181 452.55a20.49 20.49 0 1120.49-20.49A20.51 20.51 0 01181 452.55zm0-31a10.49 10.49 0 1010.49 10.49A10.49 10.49 0 00181 421.57z"/><path class="cls-2" d="M181.07 453.53A20.49 20.49 0 11201.56 433a20.51 20.51 0 01-20.49 20.53zm0-31A10.49 10.49 0 10191.56 433a10.49 10.49 0 00-10.49-10.45z"/><rect class="cls-11" x="113.53" y="388.63" width="66.88" height="84.81" rx="5.44"/><path d="M181 405.56v65.54a5.44 5.44 0 01-5.44 5.44h-56a5.43 5.43 0 01-5.44-5.44V459a29.87 29.87 0 0015.33 3.62c10.17-.37 19.74-5.54 27-12.65s12.5-16.06 16.92-25.22a132.71 132.71 0 007.63-19.19z" fill="#302f2f"/><path class="cls-13" d="M755.91 473.65a23.66 23.66 0 1147.32 0"/><path class="cls-14" d="M803.25 473.62h-39.1A79.15 79.15 0 00792.84 454a23.65 23.65 0 0110.41 19.62z"/><g opacity=".15"><path class="cls-10" d="M782 353h-12.5v-21.09h37.14a1.5 1.5 0 010 3h-34.11V350H782a1.5 1.5 0 010 3z"/><path class="cls-10" d="M791.83 353h-5.41a1.5 1.5 0 110-3h5.41a1.5 1.5 0 110 3zM796 353h-.11a1.5 1.5 0 010-3h.11a1.5 1.5 0 010 3zM822.29 353h-22.08a1.5 1.5 0 010-3h19.08v-15.09h-6.62a1.5 1.5 0 010-3h9.67zM797 334.91h-52.75v-21.05H797zm-49.76-3H794v-15.05h-46.75z"/></g><g class="cls-9"><path class="cls-10" d="M80 363.78h-.29a1.5 1.5 0 010-3H80a1.5 1.5 0 010 3z"/><path class="cls-10" d="M90.89 363.78h-6a1.5 1.5 0 110-3h3v-15.06H41.13v15.06h27.19a1.5 1.5 0 010 3H38.13v-21.06h52.76z"/><path class="cls-10" d="M75.62 363.78H73a1.5 1.5 0 110-3h2.67a1.5 1.5 0 010 3zM50.63 399.89h-12.5v-21.06h37.14a1.5 1.5 0 010 3H41.13v15.06h9.5a1.5 1.5 0 010 3z"/><path class="cls-10" d="M60.43 399.89H55a1.5 1.5 0 110-3h5.41a1.5 1.5 0 110 3zM64.56 399.89h-.11a1.5 1.5 0 110-3h.11a1.5 1.5 0 010 3zM90.89 399.89H68.81a1.5 1.5 0 010-3h19.08v-15.06h-6.62a1.5 1.5 0 110-3h9.67zM65.61 381.83H12.85v-21.05h52.76zm-49.76-3h46.76v-15.05H15.85z"/></g><g class="cls-9"><path class="cls-10" d="M143.46 172.79h-.29a1.5 1.5 0 010-3h.29a1.5 1.5 0 010 3z"/><path class="cls-10" d="M154.39 172.79h-6a1.5 1.5 0 010-3h3v-15.06h-46.76v15.06h27.19a1.5 1.5 0 010 3h-30.19v-21.06h52.76z"/><path class="cls-10" d="M139.12 172.79h-2.67a1.5 1.5 0 010-3h2.67a1.5 1.5 0 010 3zM114.13 208.9h-12.5v-21.06h37.14a1.5 1.5 0 010 3h-34.14v15.06h9.5a1.5 1.5 0 010 3z"/><path class="cls-10" d="M123.93 208.9h-5.41a1.5 1.5 0 010-3h5.41a1.5 1.5 0 110 3zM128.06 208.9H128a1.5 1.5 0 010-3h.11a1.5 1.5 0 010 3zM154.39 208.9h-22.08a1.5 1.5 0 010-3h19.08v-15.06h-6.62a1.5 1.5 0 010-3h9.67zM129.11 190.84H76.35v-21.05h52.76zm-49.76-3h46.76v-15.05H79.35z"/></g><g class="cls-9"><path class="cls-10" d="M499.29 21.06H499a1.5 1.5 0 010-3h.29a1.5 1.5 0 010 3z"/><path class="cls-10" d="M510.22 21.06h-6a1.5 1.5 0 010-3h3V3h-46.76v15.06h27.19a1.5 1.5 0 010 3h-30.19V0h52.76z"/><path class="cls-10" d="M495 21.06h-2.67a1.5 1.5 0 010-3H495a1.5 1.5 0 010 3zM470 57.17h-12.5V36.11h37.1a1.5 1.5 0 010 3h-34.14v15.06H470a1.5 1.5 0 010 3z"/><path class="cls-10" d="M479.76 57.17h-5.41a1.5 1.5 0 010-3h5.41a1.5 1.5 0 010 3zM483.89 57.17h-.11a1.5 1.5 0 010-3h.11a1.5 1.5 0 010 3zM510.22 57.17h-22.08a1.5 1.5 0 010-3h19.08V39.11h-6.62a1.5 1.5 0 010-3h9.67zM484.94 39.11h-52.76v-21h52.76zm-49.76-3h46.76v-15h-46.76z"/></g><path class="cls-13" d="M531.15 484.66H391.38a9.26 9.26 0 01-8.6-12.7l25.91-65 52.58-14.44L513.85 407l25.9 65a9.26 9.26 0 01-8.6 12.66z"/><path class="cls-14" d="M524.48 433.96H399.54l1.21-8.27h122.52l1.21 8.27z"/><circle class="cls-14" cx="411.32" cy="435.2" r="4.38"/><circle class="cls-14" cx="424.57" cy="441.05" r="2.24"/><circle class="cls-14" cx="415.12" cy="449.32" r="2.92"/><path class="cls-5" d="M531.15 484.66H391.38a9.26 9.26 0 01-8.6-12.7l25.91-65 52.58-14.44L513.85 407l25.9 65a9.26 9.26 0 01-8.6 12.66z"/><path d="M237.36 82.58h440.79a17.1 17.1 0 0117.1 17.1v310.48A16.24 16.24 0 01679 426.4H236.51a16.24 16.24 0 01-16.24-16.24V99.68a17.1 17.1 0 0117.09-17.1z" fill="#546b76"/><path d="M694.71 99.67v10.54a17.1 17.1 0 00-17.09-17.1H236.83a17.11 17.11 0 00-17.1 17.1V99.67a17.1 17.1 0 0117.1-17.09h440.79a17.09 17.09 0 0117.09 17.09z" fill="#7997a3"/><path class="cls-13" d="M695.25 370.4v39.76A16.24 16.24 0 01679 426.4H236.51a16.24 16.24 0 01-16.24-16.24V370.4z"/><path class="cls-14" d="M220.47 369.56h474.98v8.76H220.47z"/><path class="cls-18" d="M695.45 361.64v8.76h-475s-3.8-24.52.8-23.69c80.94 14.6 474.2 14.93 474.2 14.93z"/><path fill="#b4e4f9" d="M244.71 109.83H671.2v237.2H244.71z"/><path class="cls-5" d="M220.47 265.05V146.98M695.45 207.46v17.46M695.45 162.46v32.89M220.47 134V99.68a17.1 17.1 0 0117.09-17.1h440.79a17.11 17.11 0 0117.1 17.1v49.59M220.47 370.4h474.98"/><path class="cls-20" d="M244.71 337.3H671.2v9.74H244.71z"/><path opacity=".59" fill="#fff" d="M427.38 347.03h-9.74l60-237.2h9.74l-60 237.2z"/><path opacity=".3" fill="#fff" d="M405.96 347.03h-9.74l60-237.2h9.74l-60 237.2z"/><path class="cls-4" d="M470.93 347.03h-29.74l60-237.2h29.74l-60 237.2z"/><path class="cls-5" d="M244.71 208.76v-22.98"/><circle class="cls-18" cx="632.51" cy="359.56" r="2.49"/><circle class="cls-18" cx="637.19" cy="357.81" r=".74"/><circle class="cls-18" cx="633.56" cy="354.78" r=".74"/><circle class="cls-18" cx="626.42" cy="354.69" r="1.71"/><circle class="cls-18" cx="623.99" cy="359.75" r="1.51"/><circle class="cls-18" cx="619.7" cy="356.29" r=".77"/><circle class="cls-18" cx="621.41" cy="352.87" r=".94"/><circle class="cls-18" cx="614.06" cy="358.68" r="1.62"/><circle class="cls-18" cx="642.93" cy="356.53" r="1.01"/><circle class="cls-18" cx="639.13" cy="353.45" r=".58"/><circle class="cls-18" cx="643.59" cy="351.36" r="1.01"/><circle class="cls-18" cx="638.95" cy="355.7" r=".7"/><circle class="cls-18" cx="635.49" cy="351.36" r=".79"/><circle class="cls-18" cx="630.51" cy="350.2" r="1.16"/><circle class="cls-18" cx="631.45" cy="353.12" r=".25"/><circle class="cls-18" cx="630.38" cy="355.54" r=".37"/><circle class="cls-18" cx="642.89" cy="360.69" r="1.62"/><circle class="cls-18" cx="649.4" cy="358.78" r="1.25"/><circle class="cls-18" cx="655.77" cy="360.86" r="2.63"/><circle class="cls-18" cx="663.75" cy="361.05" r="2.81"/><circle class="cls-18" cx="668.74" cy="359.91" r="1.23"/><circle class="cls-18" cx="664.19" cy="355.96" r=".44"/><circle class="cls-18" cx="658.08" cy="353.82" r=".95"/><circle class="cls-18" cx="654.1" cy="352.49" r=".96"/><circle class="cls-18" cx="650.71" cy="353.68" r="1.31"/><circle class="cls-18" cx="647.19" cy="354.78" r=".96"/><circle class="cls-18" cx="656.56" cy="356.86" r=".57"/><circle class="cls-20" cx="582.81" cy="333.66" r="4.75"/><circle class="cls-20" cx="591.73" cy="330.33" r="1.41"/><circle class="cls-20" cx="584.82" cy="324.56" r="1.42"/><circle class="cls-20" cx="571.23" cy="324.39" r="3.25"/><circle class="cls-20" cx="566.6" cy="334.02" r="2.88"/><circle class="cls-20" cx="558.44" cy="327.45" r="1.47"/><circle class="cls-20" cx="561.71" cy="320.93" r="1.79"/><circle class="cls-20" cx="547.71" cy="331.99" r="3.07"/><circle class="cls-20" cx="602.66" cy="327.9" r="1.92"/><circle class="cls-20" cx="595.43" cy="322.04" r="1.1"/><circle class="cls-20" cx="603.91" cy="318.06" r="1.92"/><circle class="cls-20" cx="595.07" cy="326.31" r="1.33"/><circle class="cls-20" cx="588.49" cy="318.06" r="1.5"/><circle class="cls-20" cx="579.03" cy="315.85" r="2.21"/><circle class="cls-20" cx="580.8" cy="321.41" r=".48"/><circle class="cls-20" cx="578.78" cy="326.02" r=".71"/><circle class="cls-20" cx="602.58" cy="335.82" r="3.08"/><circle class="cls-20" cx="614.96" cy="332.19" r="2.38"/><circle class="cls-20" cx="627.09" cy="336.15" r="5"/><circle class="cls-20" cx="642.28" cy="336.5" r="5.36"/><circle class="cls-20" cx="651.76" cy="334.33" r="2.33"/><circle class="cls-20" cx="643.12" cy="326.81" r=".83"/><circle class="cls-20" cx="631.49" cy="322.75" r="1.81"/><circle class="cls-20" cx="623.91" cy="320.22" r="1.82"/><circle class="cls-20" cx="617.46" cy="322.48" r="2.5"/><circle class="cls-20" cx="610.76" cy="324.56" r="1.82"/><circle class="cls-20" cx="628.59" cy="328.53" r="1.08"/><circle class="cls-14" cx="292.42" cy="386.25" r="2.24"/><path class="cls-2" d="M272.91 124.25l-14.03 32.42M277.72 134.02l-7.01 16.22"/><circle cx="268.28" cy="157.19" r="2.39" fill="#1e1e30"/><path class="cls-2" d="M260.48 93.48h47.57M318.52 93.48h9.56"/><path class="cls-5" d="M695.25 238.91v9.39"/><circle class="cls-14" cx="278.55" cy="381.39" r="7.45"/><circle class="cls-14" cx="286.48" cy="396.01" r="3.7"/><circle class="cls-14" cx="264.99" cy="388.84" r="3.68"/><circle class="cls-4" cx="457.76" cy="399.72" r="13.46"/><path class="cls-5" d="M471 392.49a15.25 15.25 0 11-13-7.33"/><path class="cls-2" d="M397.71 461.78l-3.72 9.83M403.54 446.4l-2.21 5.84"/><path stroke-width="9" stroke="#70bee0" stroke-linecap="round" stroke-linejoin="round" fill="none" d="M297.1 337.3h44.69"/><path class="cls-25" d="M461.26 93.48h44.7M584.47 93.48h20.69"/><rect x="8.29" y="474.96" width="896.23" height="26.88" rx="13.44" fill="#ffccc0"/><path class="cls-27" d="M904.52 489a13.45 13.45 0 01-13.44 13.44H21.73A13.44 13.44 0 018.29 489a13.3 13.3 0 011.81-6.72A13.41 13.41 0 0021.73 489h869.35a13.49 13.49 0 0011.64-6.72 13.29 13.29 0 011.8 6.72z"/><path class="cls-28" d="M165.42 483h-66.6a3.5 3.5 0 010-7h66.6a3.5 3.5 0 110 7zM201.31 483h-16.6a3.5 3.5 0 110-7h16.6a3.5 3.5 0 010 7z"/><path class="cls-27" d="M668.49 491.9h-66.6a3.5 3.5 0 010-7h66.6a3.5 3.5 0 010 7zM704.39 491.9h-16.6a3.5 3.5 0 010-7h16.6a3.5 3.5 0 010 7z"/><path class="cls-29" d="M422.29 501.84h-66.6a3.5 3.5 0 010-7h66.6a3.5 3.5 0 010 7zM458.19 501.84h-16.6a3.5 3.5 0 010-7h16.6a3.5 3.5 0 010 7zM82.67 501.84H16.06a3.5 3.5 0 010-7h66.61a3.5 3.5 0 110 7zM118.56 501.84H102a3.5 3.5 0 110-7h16.6a3.5 3.5 0 010 7zM859.23 501.84h-66.6a3.5 3.5 0 010-7h66.6a3.5 3.5 0 010 7zM895.13 501.84h-16.61a3.5 3.5 0 010-7h16.61a3.5 3.5 0 010 7z"/><path class="cls-5" d="M332.16 475h558.92a13.44 13.44 0 0113.44 13.44 13.44 13.44 0 01-13.44 13.44H21.73A13.44 13.44 0 018.29 488.4 13.44 13.44 0 0121.73 475H263.1M280.66 474.96h14.44M307.83 474.96h7.43M768.31 452.83a23.68 23.68 0 0134.92 20.82M755.91 473.65a23.55 23.55 0 015.26-14.88"/><path class="cls-4" d="M133.12 388.84h5.67v86.12h-5.67z"/><path opacity=".39" fill="#fff" d="M142.77 388.84h2.72v86.12h-2.72z"/><path class="cls-2" d="M156.67 324.28a11.2 11.2 0 0111.2 11.2 11.21 11.21 0 01-11.2 11.21 9.7 9.7 0 00-9.71 9.7v22.44M134.79 368.94v-22.19M158.97 380.66v-22.2"/><path class="cls-31" d="M163.08 415.65a2.79 2.79 0 01-2.79-2.79v-23.5h5.58v23.5a2.79 2.79 0 01-2.79 2.79zM176.91 390.87a4.92 4.92 0 01-9.83 0"/><rect x="120.17" y="400.15" width="6.57" height="24.8" rx="3.28" opacity=".23" fill="#fff"/><path class="cls-33" d="M241.78 257.78v50.25M673.72 147.67v50.24M673.72 267.46v50.25"/><path class="cls-34" d="M667.62 218.16v50.25M667.62 119.88v10.24M248.01 238.48v10.24"/><path class="cls-14" d="M598.27 426.05H588a3.5 3.5 0 010-7h10.25a3.5 3.5 0 010 7z"/><path class="cls-34" d="M248.01 314.02v10.24M248.01 113.25v10.25"/><path class="cls-2" d="M244.71 170.59v-60.76H671.2v237.2H244.71V219.72"/><path class="cls-31" d="M149.15 390.21h5.12v12a2.56 2.56 0 01-2.56 2.56 2.56 2.56 0 01-2.56-2.56v-12z"/><path class="cls-5" d="M114.14 416.14v-21.05a5.44 5.44 0 015.44-5.44h56a5.45 5.45 0 015.44 5.44V469a5.44 5.44 0 01-5.44 5.43h-56a5.43 5.43 0 01-5.44-5.43v-26.5M114.14 433.04v-8.47"/><circle cx="866.08" cy="354.03" r="7.89" fill="#dc166d"/><circle class="cls-2" cx="866.08" cy="354.03" r="7.89"/><path class="cls-2" d="M846.05 370.4l6.25.77-2.33 20.16"/><path class="cls-36" d="M693.46 399.07v12.43c0 6.54-7 13-13.51 13H658M276.87 425.57h-22"/><path class="cls-5" d="M695.45 262v148.16a16.24 16.24 0 01-16.24 16.24h-442.5a16.24 16.24 0 01-16.24-16.24V277.51"/></g></g></svg>