<svg xmlns="http://www.w3.org/2000/svg" viewBox="0 0 330.77 192.73"><defs><style>.cls-1{fill:#3e3127}.cls-2{fill:#637582}.cls-5{fill:#78abba}.cls-6{fill:#fff}.cls-8{fill:#ecebeb}.cls-9{fill:#c4c4c4}.cls-10{fill:#d2eef9}</style></defs><g id="Layer_2" data-name="Layer 2"><g id="Layer_1-2" data-name="Layer 1"><ellipse class="cls-1" cx="185.07" cy="184.81" rx="145.7" ry="7.91"/><path class="cls-2" d="M286.22 171.23H85.74a4.76 4.76 0 01-4.74-4.76V38.87c0-2.63 2.13-7.76 4.76-7.76h200.46c2.62 0 4.75 5.13 4.75 7.76v127.6a4.76 4.76 0 01-4.75 4.76z"/><path d="M291 34.17v4.63c0-2.63.87-4.76-1.75-4.76H83.73C81.11 34 81 36.17 81 38.8v-4.63a4.76 4.76 0 014.75-4.76h200.47a4.76 4.76 0 014.78 4.76z" fill="#9fb1bc"/><path fill="#caeefc" d="M89.54 168V40.62h192.87v127.26"/><path class="cls-5" d="M89.72 162.85h192.87v4.65H89.72z"/><path class="cls-6" d="M89.72 41.84h192.87v4.65H89.72z"/><path class="cls-1" d="M293 168.83h-4V35a2.75 2.75 0 00-2.75-2.75H85.74A2.76 2.76 0 0083 35v133h-4V35a6.76 6.76 0 016.76-6.75h200.46A6.76 6.76 0 01293 35z"/><rect class="cls-2" x="52.13" y="168.83" width="267.7" height="14.84" rx="7.42"/><path d="M319.83 177.23a7.41 7.41 0 01-7.42 7.42H59.55a7.42 7.42 0 01-7.42-7.42 7.3 7.3 0 011-3.71 7.39 7.39 0 006.42 3.71h252.86a7.42 7.42 0 005.25-2.17 7.28 7.28 0 001.17-1.54 7.3 7.3 0 011 3.71z" fill="#455760"/><path class="cls-1" d="M312.41 186.32H59.55a9.42 9.42 0 110-18.84h252.86a9.42 9.42 0 010 18.84zM59.55 171.48a5.42 5.42 0 100 10.84h252.86a5.42 5.42 0 000-10.84z"/><path class="cls-5" d="M166.16 121.06c-9.31 1-18.68 1.77-27.91 2.83L91 129.32v-7.43l42.18-4.89c10.65-1.22 21.48-2.05 32.21-3.32a46.45 46.45 0 00.77 7.38z"/><path class="cls-5" d="M253.15 129.68a46.25 46.25 0 01-88.45-8.47 46.45 46.45 0 01-.77-7.34v-1.23c0-1.28.05-2.56.15-3.81v-.13a45.71 45.71 0 005.13 17.6 46.35 46.35 0 0080 3.38l7.52-10.76z"/><path class="cls-1" d="M91.04 168.69h-3V39.8h195.88v128.76h-3V42.8H91.04v125.89zM72 41.67a18.4 18.4 0 016.23-34.1c.38-.06.75-.11 1.13-.14a16.7 16.7 0 0112.94 4.35A17.82 17.82 0 0198.17 25v.76h-2V25A15.82 15.82 0 0091 13.26a14.74 14.74 0 00-11.41-3.84c-.33 0-.67.07-1 .13A16.4 16.4 0 0073 39.94zM104 13.58a6.79 6.79 0 116.79-6.79 6.8 6.8 0 01-6.79 6.79zM104 2a4.79 4.79 0 104.79 4.79A4.8 4.8 0 00104 2zM285.9 21.33a1 1 0 01-1-1V5.55a1 1 0 012 0v14.78a1 1 0 01-1 1zM316.27 43.19h-14.41a1 1 0 010-2h14.41a1 1 0 010 2zM311.26 15.35a1 1 0 01-.74-.32 1 1 0 01.06-1.42l5.56-5.14a1 1 0 111.36 1.46l-5.56 5.15a1 1 0 01-.68.27zM298.23 27.41a1 1 0 01-.73-.32 1 1 0 01.05-1.42l7.85-7.27a1 1 0 011.42.06 1 1 0 01-.06 1.41l-7.85 7.27a1 1 0 01-.68.27zM293.26 22.62a1 1 0 01-.52-.14 1 1 0 01-.33-1.38l3.4-5.58a1 1 0 011.38-.33 1 1 0 01.33 1.37l-3.41 5.59a1 1 0 01-.85.47zM306.08 35.09h-4.22a1 1 0 010-2h4.22a1 1 0 010 2z"/><path class="cls-8" d="M163.91 112.7c-11.44 1.41-23 2.27-34.42 3.58l-78.44 9c-10.47 1.2-21.26 4.13-31.8 1.87S2 115 2 104.47v.81C2 94.73 8.76 84.85 19.25 82.6s21.33.67 31.8 1.87l78.44 9c11.38 1.31 23 2.16 34.43 3.58"/><path class="cls-6" d="M161.94 99.67v3.82c-11.45-1.41-23.05-2.27-34.43-3.58l-78.44-9c-10.47-1.2-21.26-4.13-31.8-1.91C7.55 91.12 1 99.75.14 109.4a17.33 17.33 0 01-.14-1.91c.16-10.4 6.88-20.06 17.24-22.28 10.54-2.26 21.33.67 31.8 1.87l78.44 9c11.41 1.32 23.01 2.17 34.46 3.59z"/><path class="cls-9" d="M166.16 108.13v5c-11.45 1.42-23 2.28-34.43 3.58l-78.43 9c-10.47 1.29-21.3 4.17-31.81 1.91-10.34-2.22-17.07-11.88-17.24-22.27a24 24 0 01.58-4.95c1.85 8.38 8 15.48 16.66 17.33 10.55 2.26 21.34 4.19 31.81 3l78.43-9c11.38-1.32 22.98-2.18 34.43-3.6z"/><path class="cls-8" d="M253.15 119.71a46.31 46.31 0 11-1.2-36.6h-37v36.6z"/><path class="cls-6" d="M252.75 85.28h-3a46.18 46.18 0 00-84.94 22.27c0-.9-.08-1.8-.08-2.71a46.19 46.19 0 0188-19.56z"/><path class="cls-9" d="M253.15 120.91a46.25 46.25 0 01-89.24-17 44.16 44.16 0 01.28-5 45.62 45.62 0 005 16.48 46.35 46.35 0 0078.44 5.6z"/><path class="cls-6" d="M183.91 86.31h22.33v7.09h-22.33zM183.91 98.73h22.33v7.09h-22.33zM183.91 111.15h22.33v7.09h-22.33z"/><path class="cls-1" d="M27.65 131.31a41.88 41.88 0 01-8.82-.87C8.17 128.16.36 118.21 0 106.62v-.82C.36 94.21 8.17 84.26 18.83 82c8.31-1.78 16.67-.49 24.75.75 2.54.39 5.16.8 7.7 1.09l78.44 9c5.12.59 10.39 1.1 15.49 1.59 6.22.6 12.65 1.22 19 2l-.49 4c-6.25-.78-12.66-1.39-18.85-2-5.12-.49-10.41-1-15.57-1.59l-78.44-9c-2.61-.3-5.27-.71-7.85-1.1-7.72-1.19-15.71-2.43-23.3-.8-9 1.87-15.53 10.38-15.71 20.27.18 9.89 6.71 18.4 15.67 20.32 7.59 1.63 15.58.39 23.31-.8 2.57-.4 5.23-.81 7.84-1.11q39.22-4.49 78.44-9c5.16-.59 10.44-1.1 15.55-1.59 6.2-.6 12.61-1.21 18.86-2l.49 4c-6.31.78-12.74 1.4-19 2-5.09.49-10.35 1-15.47 1.59l-78.44 9c-2.53.29-5.16.69-7.69 1.08a104.51 104.51 0 01-15.91 1.61z"/><path class="cls-1" d="M210.1 152.52a48.19 48.19 0 1143.66-68.59l1.34 2.84h-38.19v32.6h39.17L255 122.1a47.77 47.77 0 01-44.9 30.42zm0-92.37a44.19 44.19 0 1040 63.22h-37.19v-40.6h35.77a44.4 44.4 0 00-38.58-22.62z"/><path class="cls-1" d="M207.24 95.67h-24.33v-9.1h24.33zm-22.33-2h20.33v-5.1h-20.33zM207.24 108.08h-24.33V99h24.33zm-22.33-2h20.33V101h-20.33zM207.24 120.5h-24.33v-9.09h24.33zm-22.33-2h20.33v-5.09h-20.33z"/><circle class="cls-9" cx="47.38" cy="120.36" r="3.1"/><circle class="cls-9" cx="202.06" cy="139.86" r="4.33"/><circle class="cls-5" cx="270.12" cy="160.84" r="4.33"/><path class="cls-6" d="M105.32 46.34a4.33 4.33 0 01-8.66 0C96.66 44 98.6 44 101 44s4.32 0 4.32 2.34z"/><circle class="cls-10" cx="106.84" cy="51.86" r="2.16"/><circle class="cls-10" cx="96.53" cy="51.78" r="1.08"/><circle class="cls-9" cx="51.09" cy="116.41" r="1.2"/><circle class="cls-9" cx="207.53" cy="134.53" r="1.2"/><circle class="cls-5" cx="273.26" cy="153.32" r="1.2"/><circle class="cls-9" cx="197.04" cy="133.72" r="1.96"/><circle class="cls-5" cx="261.13" cy="154.22" r="3.02"/><path class="cls-1" d="M63 96.92h-.1l-10.73-1.26a1 1 0 11.23-2l10.73 1.25a1 1 0 01-.11 2zM65 100.31h-.1l-6.41-.75a1 1 0 11.23-2l6.41.75a1 1 0 01-.11 2zM295.12 176.2a.49.49 0 01-.5-.49.5.5 0 01.5-.51h10.8a.49.49 0 01.5.49.51.51 0 01-.49.51h-10.81zM301.86 178.32a.49.49 0 01-.5-.49.51.51 0 01.5-.51h6.45a.5.5 0 01.5.5.49.49 0 01-.49.5h-6.46zM61.81 176.2a.49.49 0 01-.5-.49.5.5 0 01.5-.51h10.8a.51.51 0 01.5.49.52.52 0 01-.5.51H61.8zM68.55 178.32a.5.5 0 01-.5-.49.51.51 0 01.5-.51H75a.5.5 0 010 1h-6.46zM255.58 66a1 1 0 01-.68-.27 1 1 0 01-.05-1.41l11.27-12.19a1 1 0 111.47 1.35l-11.27 12.2a1 1 0 01-.74.32zM267 60.63a1 1 0 01-.74-1.68l6.74-7.29a1 1 0 011.5 1.34l-6.74 7.29a1 1 0 01-.76.34zM308.08 158.91a6.79 6.79 0 116.79-6.79 6.8 6.8 0 01-6.79 6.79zm0-11.58a4.79 4.79 0 104.79 4.79 4.8 4.8 0 00-4.79-4.79zM208.61 177.25h-44.9a15.42 15.42 0 01-13.57-8.09 1 1 0 111.76-.95 13.42 13.42 0 0011.81 7h44.9a13.42 13.42 0 0011.81-7 1 1 0 111.76.95 15.42 15.42 0 01-13.57 8.09z"/><path class="cls-6" d="M221.3 69.09a.75.75 0 01-.21 0 43.52 43.52 0 00-18.35-.1 1 1 0 01-1.19-.76 1 1 0 01.77-1.19 45.18 45.18 0 0119.19.1 1 1 0 01.77 1.18 1 1 0 01-.98.77zM189.65 74.42a1 1 0 01-.79-.39 1 1 0 01.17-1.4 30.52 30.52 0 016.97-3.69 1 1 0 11.74 1.86 28.6 28.6 0 00-6.46 3.41 1 1 0 01-.63.21zM97.74 67.33a1.5 1.5 0 01-1.5-1.5v-6.34a1.5 1.5 0 113 0v6.34a1.5 1.5 0 01-1.5 1.5zM97.74 84.81a1.5 1.5 0 01-1.5-1.5v-9.93a1.5 1.5 0 013 0v9.93a1.5 1.5 0 01-1.5 1.5zM93.1 94.66v.46A2.88 2.88 0 0095.63 98l23.59 2.94a2.89 2.89 0 003.24-2.87v-1.18"/></g></g></svg>