<svg xmlns="http://www.w3.org/2000/svg" width="584" height="439.996"><g fill="#f2f2f2"><path d="M144.538 293.999h2.073v24.873h-2.073z"/><path d="M155.133 294.69h-19.808a3.227 3.227 0 01-3.223-3.224v-7.371a3.227 3.227 0 013.223-3.223h19.808a3.227 3.227 0 013.223 3.223v7.371a3.227 3.227 0 01-3.223 3.224zm-12.436-12.437a9.213 9.213 0 00-9.213 9.213c0 1.017.824 1.842 1.841 1.842h19.808a1.841 1.841 0 001.842-1.842v-7.371a1.842 1.842 0 00-1.842-1.842h-12.436z"/></g><g fill="#f2f2f2"><path d="M262.538 353.999h2.073v24.873h-2.073z"/><path d="M273.133 354.69h-19.808a3.227 3.227 0 01-3.223-3.224v-7.371a3.227 3.227 0 013.223-3.223h19.808a3.227 3.227 0 013.223 3.223v7.371a3.227 3.227 0 01-3.223 3.224zm-12.436-12.437a9.213 9.213 0 00-9.213 9.213c0 1.017.824 1.842 1.841 1.842h19.808a1.841 1.841 0 001.842-1.842v-7.371a1.842 1.842 0 00-1.842-1.842h-12.436z"/></g><path fill="#ffb6b6" d="M478.491 429.604h-7.978l-3.796-30.774h11.776l-.002 30.774z"/><path d="M478.772 437.927h-24.535v-.31a9.55 9.55 0 019.55-9.55l4.482-3.4 8.362 3.4h2.141v9.86z" fill="#2f2e41"/><path fill="#ffb6b6" d="M439.14 429.604h-7.978l-3.795-30.774h11.775l-.001 30.774z"/><path d="M439.421 437.927h-24.534v-.31a9.55 9.55 0 019.55-9.55l4.482-3.4 8.361 3.4h2.142v9.86zM443.357 255.473l54.107-2.46 5.41 31.481-3.443 10.822-2.951 12.297-8.854 43.285-7.378 63.945h-15.659l-.327-60.748 3.673-5.017v-3.347l-2.51-44.267-16.411 42.794 1.475 5.902-4.427 10.822-5.316 53.86h-14.64l-3.162-73.536 11.805-45.253v-8.362l1.967-3.935 6.64-28.283z" fill="#2f2e41"/><path fill="#3f3d56" d="M479.018 154.392h-19.723l-2.411 10.821-19.184 8.854 6.887 50.172-3.935 16.232v6.394l-1.968 5.903-.984 18.833 67.388 4.777-4.427-9.837 1.476-5.903-1.476-3.443-3.935-29.021 2.951-56.074-15.248-5.411-5.41-12.297z"/><path d="M377.167 247.594l14.127-11.75 7.838 7.134-15.378 11.89a6.15 6.15 0 11-11.483-4.018 6.14 6.14 0 014.896-3.256z" fill="#ffb6b6"/><path d="M450.2 178.128l-7.507-3.021a6.04 6.04 0 00-7.303.759c-3.774 3.573-9.336 9.526-9.832 13.977 0 0-17.92 18.55-18.152 22.055-.232 3.505-24.81 29.976-24.81 29.976l11.449 8.51 46.311-44.268 4.17-22.425c1.962-2.858 8.632-3.755 5.674-5.563z" fill="#3f3d56"/><circle cx="469.872" cy="135.807" r="16.863" fill="#ffb6b6"/><path d="M487.9 143.778c-.39-.48-.55-1.08-.94-1.56.02.79.01 1.59.15 2.36.02.12.04.27.07.46.01.04.02.06.03.1 0 .02.01.04.01.06-1.19 2.25-2.55 3.64-3.53 4.03-2.42.97-5.69 1.8-5.9 1.96.23-.36 8.81-13.78 5.9-14.75-2.95-.98-2.7.85-2.7.85-1.343-5.508-4.043-7.775-8.12-6.75-5.32-.19-10.53-1.81-13.23 3.78a18.91 18.91 0 00-1.33-3.7c-.11 1.23-.11 2.6-.51 3.8-3.78 3.297-6.045 2.734-7.48.6 0-.43.01-.87.04-1.3.03-.29.06-.56.11-.84.16-.81.79-1.28 1.1-1.99-.69.38-1.41.74-2.03 1.22-.09.07-.22.16-.37.27-.39-2.55-1.73-11.1 2.55-8.24s1.97-2.95 1.97-2.95h5.13s.88-1.16 2.44-2.39c.28.08.54.16.8.26.77.3-1.71-2.49-1.06-2.06-.25-.74 2.35 1.98 1.99 1.28-.06-.12.12-2.07.01-2.28 2.86-1.73 16.58-1.739 21 2 5.56 4.703-1.478 2.303 5.59 11.55 2.819 3.687 2.627 7.15-1.69 14.23z" fill="#2f2e41"/><path d="M348.059 439.996H64.949c-7.138 0-12.946-5.808-12.946-12.946V116.94c0-7.137 5.808-12.944 12.945-12.944h283.11c7.138 0 12.945 5.807 12.945 12.944v310.11c0 7.138-5.807 12.946-12.944 12.946zm-210.134-334c-46.349 0-83.922 37.572-83.922 83.92V427.05c0 6.045 4.9 10.946 10.946 10.946h283.11c6.044 0 10.944-4.9 10.944-10.945V116.94c0-6.045-4.9-10.945-10.944-10.945H137.925zM515.059 439.996h-124.11c-7.138 0-12.946-5.808-12.946-12.946V116.94c0-7.137 5.808-12.944 12.945-12.944h124.11c7.138 0 12.945 5.807 12.945 12.944v310.11c0 7.138-5.807 12.946-12.944 12.946zm-124.11-334c-6.036 0-10.946 4.91-10.946 10.944v310.11c0 6.035 4.91 10.946 10.945 10.946h124.11c6.036 0 10.945-4.91 10.945-10.946V116.94c0-6.035-4.91-10.944-10.944-10.944h-124.11z" fill="#f2f2f2"/><path d="M570.91 0H13.1C5.88 0 0 5.87 0 13.09V199.9c0 6.92 5.41 12.62 12.22 13.06.29.03.58.04.88.04h39.12v-2H13.1c-.3 0-.59-.01-.88-.04C6.51 210.51 2 205.72 2 199.9V13.09C2 6.97 6.98 2 13.1 2h557.81C577.03 2 582 6.97 582 13.09V199.9c0 6.12-4.97 11.1-11.09 11.1h-44.69v2h44.69c7.22 0 13.09-5.88 13.09-13.1V13.09C584 5.87 578.13 0 570.91 0z" fill="#f2f2f2"/><path d="M193.798 315.38h-21.59c0-.25.02-.5.06-.77.56-4.24 5.52-10.49 8.5-11.79.57-.24 1.07-.31 1.45-.14.49.21.79.82.79 1.91 0 2.57 1.62 3.88 3.61 4.85-.49.76-1.12 1.37-1.95 1.57 1.65.35 4.19.8 6.17.31 1.46.76 2.61 1.71 2.89 3.29.05.24.07.5.07.77z" fill="#6c63ff"/><circle cx="181.343" cy="301.27" r="1.66" fill="#3f3d56"/><path d="M183.003 327.61c7.18 0 13-5.82 13-13h-26c0 7.18 5.82 13 13 13z" fill="#e6e6e6"/><path d="M247.798 355.38h-21.59c0-.25.02-.5.06-.77.25-1.9 1.39-4.2 2.83-6.28.69.09 1.31.33 1.78.81-.22-.61-.48-1.34-.82-2.1 1.57-2 3.35-3.63 4.71-4.22.57-.24 1.07-.31 1.45-.14.49.21.79.82.79 1.91 0 6.34 9.82 4.98 10.72 10.02.05.24.07.5.07.77z" fill="#6c63ff"/><circle cx="235.343" cy="341.27" r="1.66" fill="#3f3d56"/><path d="M237.003 367.61c7.18 0 13-5.82 13-13h-26c0 7.18 5.82 13 13 13z" fill="#e6e6e6"/><path d="M234.746 301.868c-5.38 0-9.743 4.361-9.743 9.742h19.485c0-5.38-4.362-9.742-9.742-9.742z" fill="#6c63ff"/><path d="M244.488 308.61h-19.48c0-5.38 4.36-9.74 9.74-9.74 1.61 0 3.13.39 4.46 1.08a22.09 22.09 0 01-.163.37c-.419.926.247 1.99 1.263 1.955.331-.011.66-.028.98-.052l1.244.528a9.744 9.744 0 011.956 5.859z" fill="#6c63ff"/><path d="M235.003 322.61c7.18 0 13-5.82 13-13h-26c0 7.18 5.82 13 13 13z" fill="#e6e6e6"/><path d="M441.746 213.868c-5.38 0-9.743 4.361-9.743 9.742h19.485c0-5.38-4.362-9.742-9.742-9.742z" fill="#6c63ff"/><path d="M451.488 220.61h-19.48c0-5.38 4.36-9.74 9.74-9.74 1.61 0 3.13.39 4.46 1.08a22.09 22.09 0 01-.163.37c-.419.926.247 1.99 1.263 1.955.331-.011.66-.028.98-.052l1.244.528a9.744 9.744 0 011.956 5.859z" fill="#6c63ff"/><path d="M442.003 234.61c7.18 0 13-5.82 13-13h-26c0 7.18 5.82 13 13 13z" fill="#e6e6e6"/><ellipse cx="140.212" cy="178.833" rx="12.463" ry="12.201" fill="#6c63ff"/><path d="M240.125 174.66H173.04c-2.302 0-4.174-1.873-4.174-4.175s1.872-4.174 4.174-4.174h67.085c2.301 0 4.174 1.873 4.174 4.174s-1.873 4.174-4.174 4.174zM292.478 188.786H173.04c-2.302 0-4.174-1.872-4.174-4.173s1.872-4.174 4.174-4.174h119.438c2.301 0 4.174 1.872 4.174 4.174s-1.873 4.173-4.174 4.173z" fill="#f2f2f2"/><g fill="#f2f2f2"><path d="M240.125 219.66H173.04c-2.302 0-4.174-1.873-4.174-4.175s1.872-4.174 4.174-4.174h67.085c2.301 0 4.174 1.873 4.174 4.174s-1.873 4.174-4.174 4.174zM292.478 233.786H173.04c-2.302 0-4.174-1.872-4.174-4.173s1.872-4.174 4.174-4.174h119.438c2.301 0 4.174 1.872 4.174 4.174s-1.873 4.173-4.174 4.173z"/></g><ellipse cx="136.212" cy="51.833" rx="12.463" ry="12.201" fill="#6c63ff"/><path d="M236.125 47.66H169.04c-2.302 0-4.174-1.873-4.174-4.175s1.872-4.174 4.174-4.174h67.085c2.301 0 4.174 1.873 4.174 4.174s-1.873 4.174-4.174 4.174zM288.478 61.786H169.04c-2.302 0-4.174-1.872-4.174-4.173s1.872-4.174 4.174-4.174h119.438c2.301 0 4.174 1.872 4.174 4.174s-1.873 4.173-4.174 4.173zM286.441 439.91l-1.907-.601 12.933-41.008c1.094-3.47-8.828 43.242-10.98 40.309-2.15-2.934 3.847-55 .209-55H126.654c-3.421 0-1.012 51.342-3.166 54-2.155 2.657-8.591-43.716-7.883-40.369l7.861 37.162-1.957.414-7.86-37.162c-.834-3.94.142-7.994 2.678-11.122s6.3-4.923 10.327-4.923h160.042c4.282 0 8.19 1.98 10.721 5.433 2.532 3.453 3.245 7.776 1.957 11.86l-12.933 41.007z" fill="#f2f2f2"/><path d="M233.972 370.185l1.93.61 32.91 10.38c4.08 1.28 8.4.57 11.86-1.96 3.45-2.53 5.43-6.44 5.43-10.72v-39.04c0-4.03-1.79-7.79-4.92-10.33a13.254 13.254 0 00-11.13-2.68l-35.17 7.44-1.99.42.02.09.4 1.87.32-.07 1.96-.41 34.88-7.38c3.35-.71 6.79.12 9.45 2.27a11.26 11.26 0 014.18 8.78v39.04c0 3.64-1.68 6.96-4.62 9.11-2.93 2.15-6.6 2.75-10.07 1.66l-33.32-10.5-1.99-.63-.13 2.05zM184.232 327.768l-1.93-.61-32.91-10.38c-4.08-1.28-8.4-.57-11.86 1.96-3.45 2.53-5.43 6.44-5.43 10.72v39.04c0 4.03 1.79 7.79 4.92 10.33s7.19 3.51 11.13 2.68l35.17-7.44 1.99-.42-.02-.09-.4-1.87-.32.07-1.96.41-34.88 7.38c-3.35.71-6.79-.12-9.45-2.27a11.26 11.26 0 01-4.18-8.78v-39.04c0-3.64 1.68-6.96 4.62-9.11 2.93-2.15 6.6-2.75 10.07-1.66l33.32 10.5 1.99.63.13-2.05z" fill="#f2f2f2"/><path d="M444.653 226.021l17.965-3.855 3.634 9.956-19.139 3.4a6.15 6.15 0 11-8.309-8.887 6.14 6.14 0 015.849-.614z" fill="#ffb6b6"/><path d="M498.867 172.778c4.276-.986 8.615 1.42 10.012 5.58 2.19 6.523 4.493 16.018 2.111 22.27l-1.967 16.233-2.46 8.854v1.268l-52.63 7.585-2.46-12.788 33.94-5.411.983-5.903.918-.918 1.261-6.706 3.782-23.119a8.543 8.543 0 016.51-6.945z" fill="#3f3d56"/><g><path d="M182.746 348.868c-5.38 0-9.743 4.361-9.743 9.742h19.485c0-5.38-4.362-9.742-9.742-9.742z" fill="#6c63ff"/><path d="M192.488 355.61h-19.48c0-5.38 4.36-9.74 9.74-9.74 1.61 0 3.13.39 4.46 1.08a22.09 22.09 0 01-.163.37c-.419.926.247 1.99 1.263 1.955.331-.011.66-.028.98-.052l1.244.528a9.744 9.744 0 011.956 5.859z" fill="#6c63ff"/><path d="M183.003 369.61c7.18 0 13-5.82 13-13h-26c0 7.18 5.82 13 13 13z" fill="#e6e6e6"/></g><circle cx="177.196" cy="354.492" r="1.66" fill="#3f3d56"/><circle cx="243.196" cy="307.492" r="1.66" fill="#3f3d56"/><path fill="#f2f2f2" d="M221.102 364.872h30v5h-30zM168.102 367.872h30v5h-30zM168.102 325.872h30v5h-30zM221.102 321.872h30v5h-30z"/><g><circle cx="139.862" cy="222.875" r="10.521" fill="#fff"/><path d="M139.862 234.116c-6.198 0-11.24-5.043-11.24-11.24s5.042-11.24 11.24-11.24 11.24 5.041 11.24 11.24-5.042 11.24-11.24 11.24zm0-21.335c-5.567 0-10.095 4.528-10.095 10.094s4.528 10.095 10.095 10.095 10.094-4.528 10.094-10.095-4.528-10.094-10.094-10.094z" fill="#3f3d56"/><path d="M138.426 228.35a1.17 1.17 0 01-.936-.467l-2.87-3.827a1.17 1.17 0 111.873-1.405l1.877 2.504 4.823-7.234a1.17 1.17 0 011.948 1.298l-5.74 8.61a1.17 1.17 0 01-.942.522h-.033z" fill="#6c63ff"/></g><g fill="#e6e6e6"><path d="M236.618 287.84c2.656-5.995 3.297-12.77 1.87-19.166-1.391-6.231-4.866-11.897-9.676-16.078a30.279 30.279 0 00-9.099-5.466c-.796-.302-1.424.882-.619 1.187a29.522 29.522 0 0113.965 11.085c3.464 5.154 5.104 11.33 4.805 17.524a28.929 28.929 0 01-2.432 10.295c-.348.785.837 1.408 1.186.619z"/><path d="M223.607 243.145l-11.474-.528c-.417-.019-.766.486-.614.87l4.643 11.769c.314.796 1.593.401 1.277-.402l-4.643-11.768-.615.87 11.474.526c.862.04.807-1.298-.048-1.337z"/></g><g fill="#e6e6e6"><path d="M411.445 78.51c-1.24-6.44-4.578-12.368-9.4-16.807-4.698-4.324-10.784-6.994-17.12-7.683a30.28 30.28 0 00-10.591.703c-.827.206-.667 1.536.169 1.327a29.522 29.522 0 0117.793 1.136c5.786 2.256 10.657 6.393 13.945 11.65a28.929 28.929 0 013.877 9.842c.162.843 1.49.68 1.327-.168z"/><path d="M375.258 49.228l-9.724 6.113c-.354.223-.352.836-.008 1.065l10.528 7.016c.712.475 1.537-.58.82-1.058l-10.529-7.016-.008 1.065 9.723-6.114c.73-.46-.078-1.527-.802-1.071z"/></g></svg>