<svg xmlns="http://www.w3.org/2000/svg" width="581.426" height="453.249"><path d="M151.159 85.779c0 2.264.596 4.528 1.787 6.591 2.383 4.127 6.65 6.592 11.417 6.592h69.314c4.767 0 9.035-2.465 11.417-6.592 1.192-2.063 1.788-4.327 1.788-6.591s-.596-4.528-1.788-6.591L210.437 19.16c-2.382-4.127-6.65-6.592-11.417-6.592-4.765 0-9.033 2.465-11.417 6.592l-34.657 60.028a13.155 13.155 0 00-1.787 6.591zM276.882 134.985c0 1.277.336 2.555 1.008 3.719a7.362 7.362 0 006.44 3.718h39.103a7.362 7.362 0 006.44-3.718c.673-1.164 1.009-2.442 1.009-3.719s-.336-2.554-1.009-3.718l-19.55-33.863a7.362 7.362 0 00-6.441-3.719 7.363 7.363 0 00-6.44 3.719l-19.552 33.863a7.421 7.421 0 00-1.008 3.718z" fill="#f2f2f2"/><path d="M23.882 133.985c0 1.277.336 2.555 1.008 3.719a7.362 7.362 0 006.44 3.718h39.103a7.362 7.362 0 006.44-3.718c.672-1.164 1.009-2.442 1.009-3.719s-.337-2.554-1.009-3.718l-19.55-33.863a7.362 7.362 0 00-6.441-3.719 7.363 7.363 0 00-6.44 3.719L24.89 130.267a7.421 7.421 0 00-1.008 3.718zM489.882 97.985c0 1.259.326 2.517.979 3.667 1.358 2.394 4.003 3.77 6.755 3.77h16.532c2.752 0 5.397-1.376 6.755-3.77a7.417 7.417 0 00.979-3.667 7.421 7.421 0 00-1.009-3.718l-8.384-22.574c-1.386-2.402-3.914-4.036-6.687-4.007a7.361 7.361 0 00-6.36 3.718l-8.552 22.863a7.421 7.421 0 00-1.008 3.718zM322.433 142.422H283.33c-2.966 0-5.65-1.007-7.181-2.693-.83-.914-1.268-1.964-1.268-3.037s.438-2.124 1.267-3.038l19.552-21.539c1.531-1.686 4.216-2.693 7.18-2.693 2.967 0 5.652 1.007 7.182 2.693l19.55 21.54c.83.913 1.269 1.964 1.269 3.037s-.439 2.123-1.268 3.037c-1.53 1.686-4.215 2.693-7.181 2.693zm-19.551-31c-2.41 0-4.542.762-5.7 2.038-3.044 9.151-9.437 16.4-19.552 21.538-.496.548-.748 1.118-.748 1.694 0 .576.252 1.145.748 1.693 1.159 1.275 3.29 2.037 5.701 2.037h39.102c2.411 0 4.542-.762 5.7-2.037.497-.548.749-1.117.749-1.693 0-.576-.252-1.146-.75-1.694l-19.55-21.539c-1.158-1.275-3.289-2.037-5.7-2.037zM209.039 99.088c-2.926 0-5.83-.876-8.376-2.605L143.316 57.55c-4.473-3.036-6.909-8.068-6.517-13.46a14.986 14.986 0 012.526-7.325 14.992 14.992 0 015.874-5.05L207.59 1.518c4.866-2.358 10.444-1.95 14.915 1.088 4.474 3.037 6.91 8.07 6.517 13.461l-5.043 69.13a14.981 14.981 0 01-2.525 7.324 14.985 14.985 0 01-5.875 5.05 14.98 14.98 0 01-6.54 1.517zm5.085-95.536c-1.69 0-3.39.383-4.99 1.157-15.152 15.223-30.868 29.93-62.39 30.197a11.451 11.451 0 00-4.487 3.85 11.444 11.444 0 00-1.921 5.591c-.3 4.114 1.558 7.954 4.97 10.27l57.348 38.933c3.413 2.317 7.664 2.627 11.381.83a11.457 11.457 0 004.487-3.85 11.428 11.428 0 001.92-5.59l5.043-69.13c.302-4.115-1.558-7.954-4.97-10.272a11.348 11.348 0 00-6.39-1.986z" fill="#3f3d56"/><path fill="#3f3d56" d="M0 140.422h530.882v2H0z"/><path d="M112.46 65.187c-24.18 6.938-34.915 28.6-35.023 28.822l1.8.872c.104-.215 10.384-20.914 33.473-27.689l-1.776 8.792c3.76-4.41 10.2-9.004 15.508-11.924-5.927-1.247-13.427-3.767-18.308-6.89l4.327 8.017zM245.213 44.806l-.518 1.932c.23.061 22.49 6.276 33.477 27.684l-8.969-.095c5.037 2.866 10.758 8.33 14.622 12.996.112-6.056 1.18-13.895 3.333-19.276l-7.063 5.754c-11.351-22.45-34.642-28.931-34.882-28.995zM376.837 70.77c-5.303-2.928-11.735-7.534-15.488-11.95l1.79 8.933c-25.147-.451-41.761 17.12-41.93 17.302l1.466 1.36c.162-.174 16.045-16.945 40.114-16.671l-4.273 7.885c4.887-3.116 12.391-5.621 18.321-6.86z" fill="#6c63ff"/><path fill="#a0616a" d="M390.977 434.204l-8.322-.07-3.685-32.851 12.284.104-.277 32.817z"/><path d="M394.736 451.042l-1.548-20.673-2.174-.145-8.865-.607-2.852-.19-.054 5.95-13.293 9.018a3.738 3.738 0 00-1.63 3.043 3.733 3.733 0 002.662 3.604c.326.1.67.154 1.033.154l16.543.135.145-.29 2.753-5.577 1.005 5.578.054.326 6.248.054-.027-.38z" fill="#2f2e41"/><path fill="#a0616a" d="M510.36 429.01l-8.063 2.058-11.956-30.819 11.902-3.038 8.118 31.798z"/><path d="M518.297 444.328l-6.779-19.591-2.138.415-8.726 1.679-2.806.545 1.468 5.765-10.547 12.116a3.738 3.738 0 00-.799 3.358 3.733 3.733 0 003.495 2.804c.34.013.687-.022 1.037-.115l16.03-4.096.065-.317 1.237-6.096 2.397 5.136.135.301 6.055-1.544-.124-.36zM400.136 159.018l49.128 8.558v7.654s3.375-.46 3.375 1.79v3.95l2.732 2.732s26.52 31.57 22.02 69.072l3.75 32.252 3.75 6.75-1.5 7.5s5.25 5.251 5.25 6.001-1.5 7.5-1.5 7.5 7.5 3 6.75 3.751.75 5.25.75 5.25 18.752 54.754 13.502 92.256l-12.751 3.75-43.503-101.256-25.501-72.754-21.501 51.003v9.862l.75 2.138v1.5l-2.25 5.25 1.5 3.001-3 9v11.251s.5 60.004-10.001 79.505h-12.751l-12.75-115.507 2.25-12 .75-6.001 3.75-1.5-3.75-4.5 12.75-79.505 18.001-38.253z" fill="#2f2e41"/><path d="M412.107 68.21h26.57l3.403 11.276 10.535 4.171a18.153 18.153 0 0111.436 17.993l-.161 2.615 2.734 16.007s-3.245 6.12-4.865 7.432-7.93 28.669-7.93 28.669l12.053 42.049-16.243-9.402-54.757-20.598.004-10.904 3.057-7.94 1.898-1.899-8.22-15.054-7.06-44.12 21.305-7.397 6.241-12.897z" fill="#6c63ff"/><path d="M332.72 111.35l4.614-34.4.064.013a6.698 6.698 0 01.218-5.01 6.727 6.727 0 1112.248 5.567 6.694 6.694 0 01-3.364 3.343l-3.346 25.177 44.068-16.779s17.188 9.273 10.71 11.703c-4.215 1.58-50.096 18.875-58.485 18.47-4.177-.202-7.283-3.939-6.727-8.084z" fill="#a0616a"/><path d="M397.692 92.749l5.77 8.286c-9.475 6.816-54.555 23.144-54.727 21.1-.172-2.043-2.416-.188-2.645.601s-2.793-.391-2.778.536-2.136.355-3.213.503c0 0-8.35-2.84-9.609-7.567s.27-10.087.27-10.087l-1.878-4.991 20.85-3.888-3.86 6.29 42.255-16.499 9.565 5.716z" fill="#6c63ff"/><path d="M491.112 140.014l18.672-29.232-.057-.031c1.8-1.058 3.117-2.944 3.306-5.32.212-2.657-1.248-5.254-3.628-6.451a6.73 6.73 0 00-9.552 4.153 6.69 6.69 0 00.41 4.723l-13.689 21.374-18.337-33.152c-3.395-6.137-10.03-9.907-17.02-9.332-2.684.221-4.396 1.09-3.177 3.27 2.197 3.925 26.058 46.725 32.722 51.828 3.319 2.54 8.1 1.693 10.35-1.83z" fill="#a0616a"/><path d="M453.523 83.9l-9.75 2.602c2.835 11.315 26.708 52.86 28.157 51.412 1.45-1.449 1.965 1.415 1.632 2.165s2.384 1.503 1.774 2.2 1.402 1.65 2.128 2.458c0 0 8.205 3.22 12.215.424 4.011-2.796 6.303-7.873 6.303-7.873l4.653-2.598-13.406-16.42-1.11 7.293-17.37-32.038a18.153 18.153 0 00-13.01-9.26l-2.216-.365z" fill="#6c63ff"/><circle cx="419.23" cy="42.31" r="20.867" fill="#a0616a"/><path d="M391.846 33.26c-.221-10.211 4.218-12.806 10.708-12.969 13.397-5.082 16.096-3.093 20.016-1.911l1.508-.144a23.168 23.168 0 0112.905 2.487c8.095 4.186 12.71 12.936 12.267 22.038-.306 6.275-2.837 13.095.18 18.574 2.523 4.574 5.184 9.09-.01 9.586l-13.6 1.299c-.978-1.586-1.717-3.215-2.534-5.242-.61 1.652-.884 3.594-.898 5.57-4.97 1.788-10.208 2.154-15.641 1.493-.738-1.267-1.37-2.657-1.095-4.107-.473 1.43-1.014 2.846-1.252 4.332-3.162-2.603-6.064-2.288-8.718.832-5.147-5.393-4.324-16.27 2.77-18.188 6.001-1.622-1.158-18.741-7.286-19.792-.039-.007-2.41 6.01-2.454 5.887-.666-1.843-.156-2.75-.973-4.778-.51 1.394-.79 2.989-.87 4.636a26.198 26.198 0 01-4.291-1.938c-1.464-2.57-1.847-5.126-.732-7.665z" fill="#2f2e41"/><path d="M527.167 435.916c2.066.13 3.208-2.437 1.645-3.933l-.156-.618.062-.149c2.09-4.981 9.17-4.947 11.241.042 1.84 4.428 4.18 8.864 4.756 13.546a18.029 18.029 0 01-.316 6.2c4.308-9.41 6.575-19.686 6.575-30.02 0-2.597-.142-5.193-.433-7.783a71.607 71.607 0 00-.995-6.31c-2.305-11.278-7.298-22.019-14.5-30.99-3.462-1.893-6.349-4.85-8.093-8.397-.626-1.278-1.117-2.654-1.35-4.056.394.052 1.486-5.948 1.189-6.317.549-.833 1.532-1.247 2.131-2.06 2.983-4.043 7.092-3.337 9.237 2.157 4.582 2.313 4.626 6.148 1.815 9.837-1.79 2.347-2.035 5.523-3.605 8.035.162.207.33.407.491.614a73.591 73.591 0 017.681 12.168c-.61-4.766.291-10.508 1.827-14.21 1.748-4.217 5.025-7.768 7.91-11.414 3.466-4.38 10.574-2.468 11.184 3.083l.018.161c-.43.242-.849.499-1.26.77-2.339 1.547-1.53 5.174 1.242 5.602l.063.01a30.628 30.628 0 01-.808 4.579c3.702 14.316-4.29 19.53-15.701 19.764-.252.13-.497.258-.75.381a73.187 73.187 0 012.765 9.979 73.856 73.856 0 011.279 9.049c.297 3.83.271 7.68-.052 11.503l.02-.136c.82-4.21 3.106-8.144 6.426-10.87 4.946-4.062 11.933-5.558 17.268-8.824 2.569-1.572 5.86.46 5.412 3.437l-.022.143c-.795.323-1.57.697-2.319 1.117-.428.242-.848.499-1.258.77-2.34 1.547-1.531 5.174 1.24 5.602l.063.01.13.019a30.655 30.655 0 01-5.639 8.829c-2.315 12.497-12.256 13.683-22.89 10.044h-.007a75.092 75.092 0 01-5.044 14.726h-18.02c-.065-.2-.123-.407-.181-.607 1.666.103 3.346.006 4.986-.297-1.337-1.641-2.674-3.295-4.01-4.935a1.12 1.12 0 01-.085-.097c-.678-.84-1.363-1.673-2.04-2.512l-.001-.001a29.99 29.99 0 01.879-7.64z" fill="#f2f2f2"/><path d="M325.616 452.06c0 .66.53 1.19 1.19 1.19h253.29c.66 0 1.19-.53 1.19-1.19 0-.66-.53-1.19-1.19-1.19h-253.29c-.66 0-1.19.53-1.19 1.19z" fill="#ccc"/><circle cx="197.882" cy="141.422" r="12" fill="#ccc"/><circle cx="302.882" cy="143.422" r="12" fill="#ccc"/><circle cx="506.882" cy="148.422" r="12" fill="#ccc"/><circle cx="50.882" cy="141.422" r="12" fill="#ccc"/><path d="M55.276 144.638c-.482 0-.964-.006-1.445-.013.016-.092.033-.184.047-.275.22-1.471.323-2.962.312-4.45-.01-1.421-.077-2.95-.545-4.305-.342-.99-1.283-1.304-2.203-.897-1.62.717-3.014 2.145-4.294 3.059-.658.47-.973 1.308-.538 2.052.38.65 1.39 1.011 2.053.538.897-.64 1.656-1.323 2.466-1.935.028.37.048.74.056 1.11a28.02 28.02 0 01-.175 3.826c-.008.062-.045.32-.04.298l-.035.226c-.042.243-.09.485-.157.723l-.007.021c-.707.01-1.414.032-2.12.086-.743.056-1.382.526-1.474 1.3-.086.725.339 1.453 1.075 1.646 1.238.325 2.652.593 3.836-.041 1.063.006 2.125.03 3.187.031.811.002 1.5-.69 1.5-1.5a1.52 1.52 0 00-1.5-1.5z" fill="#fff"/><g fill="#fff"><path d="M199.235 136.703l-.008-.006c.02.018.036.033.048.042l-.04-.036z"/><path d="M202.543 144.922c-1.27.005-2.538.098-3.808.12-.176.002-.336 0-.503.001.626-.497 1.255-.99 1.856-1.516 1.586-1.387 3.297-3.308 3.054-5.578-.244-2.283-2.324-4.699-4.788-4.458-1.966.192-3.6 1.733-4.16 3.596-.313 1.038-.204 2.189.468 3.058.779 1.007 2.07 1.32 3.293 1.258-.094.082-.182.171-.277.252-.758.642-1.553 1.238-2.318 1.87-.655.54-1.33 1.13-1.755 1.877a1.518 1.518 0 00.896 2.203c2.615.749 5.37.327 8.042.317.81-.003 1.5-.687 1.5-1.5 0-.811-.686-1.503-1.5-1.5zm-3.04-5.07v-.002c.035-.05.033-.042 0 .002zm-.556-3.321c-.076-.04-.144-.082 0 0zm.091.035c-.003.006-.033-.006-.068-.024a.397.397 0 01.068.024zm-2.03 1.7l.002.01-.006-.013.005.003zm-.02-.013l.01.027a1.335 1.335 0 00-.06-.059c.023.002.035.02.05.032zm.014.04l.001.005c-.133-.066-.075-.046-.001-.004zm.007.022l.001.002v-.002zm.38.092c-.013 0-.025-.002-.038-.003-.068-.02-.141-.035-.21-.05.02.013.043.025.054.043-.008-.014-.042-.032-.078-.048l-.004-.001c-.028-.007-.029-.009-.046-.014.03.021.049.042.043.057a.979.979 0 01-.064-.063c.026.077.015.14-.007.014v-.016l-.008-.002v-.003l-.001-.008-.001-.002h.001v-.001l-.005-.002-.002-.002.007.004-.004-.033c.007.01.008.02.012.032a7.43 7.43 0 00-.007-.203 2.12 2.12 0 01.028-.124c.015-.06.082-.236.103-.3.043-.079.084-.158.13-.236.031-.053.138-.2.18-.263.066-.074.155-.175.19-.21.06-.06.125-.117.188-.175.053-.05.214-.234.047-.044-.154.174-.023.018.056-.03.072-.043.143-.088.217-.129l.028-.01c-.047.008-.056-.002.072-.037l.024-.007c.03-.014.062-.028.069-.041-.008.014-.028.023-.045.034l.153-.043c-.016-.002-.034 0-.047-.007.004.002.03.004.055.005l.03-.008c.197-.056.138-.009.048.01.062.002.128.002.187 0-.1-.017-.193-.07.002-.013l.044.012a.3.3 0 00.064-.006c-.013.01-.037.007-.058.008l.168.049.008.004.22.128c.017.01.022.016.035.024-.016-.014-.03-.025-.05-.046.018.018.04.034.058.052.069.046.077.061.04.036.053.045.105.09.154.139.086.085.164.177.247.265.013.015.02.02.028.029l.017.026c.12.188.222.384.336.573.005.013.01.025.013.037.025.09.049.182.077.271l.01.031c.003.094.011.187.009.28l-.003.071c-.007.05-.016.11-.022.137-.02.087-.044.172-.07.256l-.034.1c-.174.302-.346.594-.536.885-.036-.753-.702-1.483-1.493-1.437-.208.013-.412.01-.62.005z"/><path d="M197.038 138.309v.006l-.005-.003h-.003l.009.01v.004l.006.002.022.006-.025-.017-.002-.003.077.035.023.005a.322.322 0 00-.1-.04l-.002-.005zM198.557 136.492c-.032 0-.056-.002-.078-.003l-.008.002c.03.005.056.007.086 0zM198.796 136.492l-.006-.002-.046.002c.02.003.033 0 .052 0z"/><path d="M197.033 138.312l.005.001-.008-.003.003.002zM197.03 138.31zM198.318 136.534l-.024.007-.096.043a.369.369 0 00.12-.05z"/></g><path d="M308.149 143.569c-.055-.067-.123-.12-.181-.184.2-.202.382-.43.514-.715.74-1.604-.12-3.336-1.208-4.545-2.032-2.258-5.933-2.792-8.504-1.203-.667.412-.984 1.36-.538 2.052.432.67 1.338.98 2.053.538.11-.068.224-.129.336-.193l.068-.04.05-.017c.25-.087.501-.151.759-.209.033-.007.052-.013.068-.017.018 0 .032 0 .06-.002.133-.007.266-.019.4-.02.24-.005.477.014.716.033l.162.03a5.86 5.86 0 011.02.3l.203.096c.117.06.232.125.344.193.111.068.215.148.325.216-.283-.173-.034-.024.034.038.164.15.312.315.455.484a4.761 4.761 0 01.264.407c.012.021.07.133.11.205.02.057.062.16.068.183.012.037.019.071.025.102-.039.015-.08.03-.107.038-.08.02-.162.034-.243.05a3.107 3.107 0 01-.177.018c-.231.016-.463.019-.694.019a1.5 1.5 0 00-1.473 1.3c-.104.775.364 1.386 1.074 1.646l.142.054.176.079c.192.093.381.194.564.304.111.066.217.138.326.208l.044.03c.146.117.287.24.415.376.074.078.216.333.061.055.035.063.078.13.12.188l.021.027.001.004.02.064c-.025.045-.05.09-.079.133.108-.186.01-.011-.073.073a2.006 2.006 0 01-.481.384c-.1.06-.202.116-.307.167-.028.007-.142.05-.187.064a3.552 3.552 0 01-.28.067c-.036.004-.115.014-.172.016-.119.004-.236-.002-.354-.004h-.07l-.024-.008c-.234-.058-.468-.103-.699-.178-.116-.038-.23-.08-.346-.122a3.934 3.934 0 00-.085-.03c.008.002.008 0-.038-.021a19.409 19.409 0 01-1.409-.734c-.683-.386-1.67-.186-2.052.538-.375.71-.192 1.64.538 2.052 1.302.734 2.667 1.413 4.185 1.503 1.63.096 3.263-.714 4.252-1.993.996-1.29.79-2.881-.192-4.1zm-2.35-2.22c.022-.032.021-.035.032-.054.024-.03.03-.035-.032.055zm.05-.085l.01-.017c.013.002.043-.009.127-.06-.046.028-.092.051-.137.077zm.198 4.586c.005.025.01.045.005.047l-.005-.047zM512.872 147.637c-.19-.587-.746-1.068-1.366-1.104a22.008 22.008 0 01-.14-2.182c-.006-.784-.686-1.536-1.5-1.5-.807.036-1.506.66-1.5 1.5.006.805.068 1.599.156 2.387-.571-.035-1.143-.076-1.714-.056-.686.025-1.366.135-2.05.181-.098.007-.196-.001-.293.002.095-.284.19-.567.304-.845l.068-.148c.043-.09.088-.18.134-.27.1-.19.206-.378.325-.558.04-.061.272-.34.03-.063.073-.082.14-.166.217-.246.054-.056.114-.108.172-.162.022-.016.051-.037.09-.06.663-.418.986-1.357.537-2.053-.428-.665-1.341-.984-2.052-.538-1.944 1.221-2.603 3.644-3.207 5.718-.186.64.124 1.359.69 1.694 1.512.898 3.283.438 4.924.353.743-.038 1.494.024 2.243.061.217 1.454.414 2.905.418 4.383.002.784.689 1.536 1.5 1.5.811-.037 1.503-.66 1.5-1.5-.004-1.592-.225-3.141-.456-4.683.701-.28 1.22-1.037.97-1.81zm-7.164-3.059c-.05.044-.052.04 0 0z" fill="#fff"/></svg>